<?xml version="1.0" encoding="UTF-8" standalone="no"?>
<svg id="svg2" xmlns:rdf="http://www.w3.org/1999/02/22-rdf-syntax-ns#" xmlns="http://www.w3.org/2000/svg" height="150" width="150" version="1.1" xmlns:dc="http://purl.org/dc/elements/1.1/" viewBox="0 0 150 150">
 <g id="layer1" transform="translate(-263.39 -421.83)">
  <g id="g4182" transform="translate(18.75 -41.25)">
   <rect id="rect4147" height="150" width="150" y="463.08" x="244.64" fill="#f89820"/>
   <g id="flowRoot4149" fill="#fff" transform="matrix(.95798 0 0 .94605 -1.5482 62.511)">
    <path id="path4164" d="m294.92 470.79-1.7333-4.4776h-10.941l-1.7694 4.4776h-6.7886l10.869-25.313h6.7886l10.616 25.313h-7.0414zm-10.688-9.533h7.0053l-3.4665-9.0274-3.5388 9.0274z"/>
    <path id="path4166" d="m320.31 457.86h5.7053v10.075q-2.0222 1.4805-4.9831 2.4194-2.9249 0.90274-5.5609 0.90274-3.8276 0-6.9331-1.6972-3.0693-1.7333-4.8387-4.7304t-1.7694-6.7164q0-3.6832 1.8055-6.6442 1.8416-2.9971 5.0192-4.6943 3.2138-1.6972 7.1497-1.6972 2.8166 0 5.6331 1.0472 2.8166 1.0111 4.7665 2.7443l-3.7554 4.622q-1.3722-1.3-3.1777-2.0582-1.7694-0.75831-3.5026-0.75831-2.0221 0-3.6471 0.97497-1.6249 0.97496-2.5638 2.6721-0.93886 1.6972-0.93886 3.7915 0 2.1305 0.93886 3.8637 0.93885 1.6972 2.5999 2.6721 1.661 0.97496 3.6832 0.97496 1.9138 0 4.3693-1.2277v-6.5359z"/>
    <path id="path4168" d="m330.35 445.48h19.969v5.272h-13.361v4.7304h12.061v5.2359l-12.061 0.0361v4.7665h13.722v5.272h-20.33v-25.313z"/>
    <path id="path4170" d="m288.39 490.22q3.8637 0 6.9692 1.6972 3.1416 1.6972 4.9109 4.6582 1.8055 2.961 1.8055 6.6442 0 3.7193-1.8055 6.7164-1.7694 2.9971-4.9109 4.7304-3.1054 1.7333-6.9692 1.7333-3.8637 0-7.0053-1.6972-3.1054-1.7333-4.9109-4.7304-1.7694-3.0332-1.7694-6.7525 0-3.6832 1.7694-6.6442 1.8055-2.961 4.9109-4.6582 3.1416-1.6972 7.0053-1.6972zm0.0722 5.597q-1.8777 0-3.5026 0.97496-1.5888 0.97496-2.5277 2.7082-0.93885 1.6972-0.93885 3.7554 0 2.0944 0.93885 3.8276 0.97497 1.6972 2.5638 2.7082 1.5888 0.97496 3.4665 0.97496t3.4304-0.97496q1.5888-1.0111 2.4916-2.7082 0.90274-1.7333 0.90274-3.8276 0-2.0583-0.90274-3.7554-0.90274-1.7333-2.4916-2.7082-1.5527-0.97496-3.4304-0.97496z"/>
    <path id="path4172" d="m305.39 490.61h18.921l-0.0361 5.272h-12.277v5.6331h11.338v5.272h-11.338v9.1358h-6.6081v-25.313z"/>
    <path id="path4174" d="m291.31 552.83q0 4.0443-2.3832 6.2831-2.3471 2.2388-6.4275 2.2388-5.3081 0-8.8108-4.0804l3.0332-4.5137q1.3361 1.3722 2.7443 2.1305 1.4083 0.72219 2.5638 0.72219 1.2277 0 1.9138-0.7583 0.72219-0.75831 0.72219-2.1666v-11.483h-8.6663v-5.4526h15.311v17.08z"/>
    <path id="path4176" d="m313.69 561.06-1.7333-4.4776h-10.941l-1.7694 4.4776h-6.7886l10.869-25.313h6.7886l10.616 25.313h-7.0414zm-10.688-9.533h7.0053l-3.4665-9.0274-3.5388 9.0274z"/>
    <path id="path4178" d="m318.51 535.75h7.1136l6.3192 18.308 6.3553-18.308h6.7886l-9.894 25.313h-6.8608l-9.8218-25.313z"/>
    <path id="path4180" d="m364.11 561.06-1.7333-4.4776h-10.941l-1.7694 4.4776h-6.7886l10.869-25.313h6.7886l10.616 25.313h-7.0414zm-10.688-9.533h7.0053l-3.4665-9.0274-3.5388 9.0274z"/>
   </g>
  </g>
 </g>
</svg>
